<svg width="120mm" height="120mm" viewBox="0 0 120 120" xmlns="http://www.w3.org/2000/svg"><path style="fill:#000;stroke-width:.269821" d="M42.698 115.33c-5.46-3.87-9.31-9.068-12.433-14.476-1.264-2.189-2.362-4.446-3.542-6.669-3.48-7.462-6.439-15.13-8.341-23.015-1.077-4.463-1.916-9.444-1.894-14.024.01-2.313.386-4.613.579-6.92.64-2.404 1.131-4.841 1.92-7.212 1.51-4.532 3.855-9.454 6.166-13.728 2.209-4.083 4.601-7.932 7.39-11.739 1.175-1.602 2.485-3.126 3.728-4.689 2.703-2.912 5.163-6.296 8.93-8.322.31-.167-1.002.664-.654.763.922.262 1.942-.194 2.91-.12 1.074.08 2.11.387 3.165.58 1.125.395 2.28.732 3.376 1.184 3.723 1.537 8.392 4.215 10.744 7.221.514.657.84 1.41 1.259 2.116.185.793.48 1.574.555 2.381.174 1.878-.243 3.884-.707 5.697-.79 3.081-1.982 6.099-3.043 9.115-.287.785-.594 1.565-.862 2.356-.188.554-.432 1.103-.506 1.677-.037.296-.09.694.18.88.32.223.853.242 1.227.096 3.776-1.475 5.472-2.652 8.506-4.53 3.307-2.051 3.93-2.51 7.516-4.417.34-.18.713-.306 1.07-.457 1.407-.592 2.782-1.245 4.222-1.772 1.225-.448 2.47-.873 3.762-1.148 1.078-.23 2.205-.237 3.307-.356 1.017.318 2.133.46 3.05.954 2.233 1.206 4.047 3.495 5.224 5.429 1.625 2.667 2.963 6.276 3.728 9.163.541 2.044.856 4.129 1.284 6.193.222 2.281.55 4.556.667 6.843.245 4.797.06 9.445-.55 14.218-.54 4.207-1.504 9.052-3.025 13.101-.726 1.934-1.77 3.767-2.655 5.65-1.22 1.65-2.267 3.405-3.662 4.947-2.9 3.206-6.286 5.652-10.252 7.822-1.041.57-2.222.925-3.364 1.325-7.163 2.508-5.75 1.982-12.922 3.592-1.85.175-3.69.51-5.55.527-4.52.038-9.438-1.138-12.727-3.966-2.856-2.457-3.19-4.174-4.648-7.344-.33-1.454-.788-2.891-.988-4.363-.588-4.313-.07-8.24 2.589-12.006 1.947-2.757 3.1-3.27 5.866-5.262-.053.162-.353.46-.16.484 1.055.137 2.147-.24 3.2-.09 3.677.529 6.235 3.046 7.805 5.773.613 1.064.967 2.225 1.45 3.337.851 3.123 1.152 6.312.067 9.427-.644 1.846-1.238 2.39-2.417 3.908l3.794-1.44c1.123-1.573 1.672-2.11 2.26-3.996.987-3.174.632-6.401-.248-9.556-.492-1.135-.858-2.316-1.475-3.405-1.622-2.861-4.146-5.451-7.964-6.105-1.087-.186-2.275-.315-3.323-.006-2.362.698-4.44 1.969-6.662 2.953-2.714 2.044-3.857 2.585-5.742 5.378-2.594 3.842-3.052 7.824-2.433 12.17.213 1.49.677 2.946 1.015 4.42 1.457 3.206 1.835 5.035 4.702 7.54 3.332 2.912 8.377 4.137 12.99 4.104 1.896-.013 3.77-.357 5.655-.536 2.108-.47 4.249-.842 6.323-1.411 6.163-1.693 10.608-3.585 16.305-6.618a39.143 39.143 0 0 0 5.597-3.638c4.605-3.576 4.989-4.805 8.231-9.287.863-1.89 1.88-3.732 2.587-5.67 1.492-4.09 2.404-8.879 2.93-13.12.599-4.833.78-9.415.553-14.271-.108-2.303-.414-4.597-.621-6.895-.397-2.092-.676-4.203-1.19-6.275-.73-2.949-2.03-6.587-3.638-9.319-1.175-1.998-3.002-4.386-5.253-5.672-.947-.54-2.11-.725-3.167-1.087-1.138.11-2.3.103-3.414.331-2.499.512-5.917 1.915-8.106 2.93-5.318 2.466-10.51 5.108-15.34 8.243-2.839 1.696-4.185 2.339-1.336 1.04.285-.13-.561.464-.865.372-.26-.079-.217-.457-.192-.694.081-.782 1.07-3.477 1.236-3.959 1.04-3.03 2.22-6.057 3.009-9.145.486-1.9.905-3.883.705-5.845-.086-.838-.402-1.646-.603-2.47-.441-.726-.786-1.502-1.324-2.177-2.396-3.011-7.178-5.729-10.904-7.325-1.099-.47-2.254-.836-3.38-1.254-1.622-.339-4.429-1.165-6.202-.643-7.469 2.199-10.459 5.79-14.87 11.01-1.21 1.559-2.484 3.081-3.63 4.676-4.166 5.8-7.724 11.988-10.554 18.361-1.044 2.352-2.042 4.725-2.847 7.146-.796 2.393-1.3 4.85-1.95 7.276-.186 2.32-.56 4.634-.56 6.959.001 4.663.884 9.49 2.02 14.028 1.973 7.89 4.967 15.561 8.32 23.084 1.14 2.252 2.198 4.535 3.417 6.756 3.02 5.502 6.759 10.716 11.936 14.902l3.668-1.994z"/><path style="fill:#d40000;stroke-width:.359716" d="M34.608 106.983C29.105 99.77 22.956 86.59 19.616 74.85c-2.202-7.739-2.731-11.21-2.704-17.727.022-5.126.156-6.343 1.086-9.858 3.112-11.77 10.516-25.175 19.659-35.59 4.7-5.355 5.561-6.02 8.054-6.22 5.793-.464 16.67 5.045 19.594 9.924.89 1.486 1.161 5.004.6 7.786-.246 1.221-1.4 4.912-2.565 8.201-1.165 3.29-2.118 6.226-2.118 6.523 0 1.77 2.947.641 10.842-4.15 8.052-4.886 14.816-7.694 18.533-7.694 5.758 0 10.806 7.22 13.227 18.916 1.167 5.643 1.472 16.98.625 23.259-1.707 12.646-5.239 20.486-11.864 26.33-1.597 1.409-4.077 3.275-5.511 4.148-2.897 1.761-9.354 4.13-14.762 5.415-4.23 1.006-10.707 1.401-13.741.84-8.362-1.548-12.99-7.356-13.505-16.946-.155-2.894-.054-4.136.463-5.681 1.014-3.032 2.832-5.688 5.141-7.509 1.951-1.54 2.234-1.653 4.098-1.646 2.7.01 4.762.89 6.902 2.944 4.838 4.644 5.943 13.64 2.228 18.143-.453.55-.746 1.068-.65 1.151.097.083 1.053-.164 2.126-.548 1.656-.594 2.101-.959 2.96-2.426 3.277-5.595 1.693-14.173-3.502-18.966-1.99-1.835-4.38-2.773-7.073-2.773-1.418 0-2.523.34-5.209 1.604-7.779 3.66-11.462 8.82-11.462 16.056 0 4.745 2.025 10.947 4.481 13.724l1.253 1.416-.931.366c-.626.246-.931.643-.931 1.211 0 .731-.095.795-.698.47-.557-.3-1.104-.199-2.71.504-1.107.484-2.013 1.015-2.013 1.18 0 .166-.668.757-1.484 1.315l-1.484 1.014z"/></svg>